<svg>
    <symbol id="header_instagram" width="22" height="22" viewBox="0 0 22 22" fill="none" xmlns="http://www.w3.org/2000/svg">
        <path d="M14.535 5.66602H17.0003M7.00033 1.66602H15.0003C17.9458 1.66602 20.3337 4.05383 20.3337 6.99935V14.9993C20.3337 17.9449 17.9458 20.3327 15.0003 20.3327H7.00032C4.05481 20.3327 1.66699 17.9449 1.66699 14.9993V6.99935C1.66699 4.05383 4.05481 1.66602 7.00033 1.66602ZM11.0003 14.9993C8.79119 14.9993 7.00033 13.2085 7.00033 10.9993C7.00033 8.79021 8.79119 6.99935 11.0003 6.99935C13.2095 6.99935 15.0003 8.79021 15.0003 10.9993C15.0003 13.2085 13.2095 14.9993 11.0003 14.9993Z" stroke-width="2.5"/>
    </symbol>

    <symbol id="header_telegram" width="22" height="22" viewBox="0 0 22 22" fill="none" xmlns="http://www.w3.org/2000/svg">
        <g clip-path="url(#clip0_461_380)">
        <path d="M21 11C21 16.5228 16.5228 21 11 21C5.47715 21 1 16.5228 1 11C1 5.47715 5.47715 1 11 1C16.5228 1 21 5.47715 21 11Z" stroke-width="2"/>
        <path d="M3.18659 10.5145L16.651 6.01369C16.8532 5.9459 17.0461 6.14081 16.9902 6.35611L14.6345 15.4244C14.5928 15.5846 14.4293 15.6722 14.2816 15.6133L9.52469 13.7204C9.33766 13.6459 9.29133 13.3895 9.43958 13.2482L13.1712 9.69068C13.4006 9.47213 13.153 9.08642 12.8745 9.22901L6.62773 12.4258C6.55932 12.4608 6.48017 12.4634 6.40978 12.4332L3.16663 11.0436C2.93485 10.9441 2.94798 10.5942 3.18661 10.5146L3.18659 10.5145ZM10.6712 11.2813C10.7883 11.1742 10.6583 10.9813 10.5234 11.0621L7.54646 12.7726C7.27799 12.9334 7.15192 13.2689 7.2432 13.5795L8.16274 16.8368C8.20947 17.0018 8.40634 17.055 8.52279 16.9342L10.3581 15.1063C10.4331 15.0284 10.4092 14.8952 10.3123 14.8518L8.40787 13.8531C8.30327 13.7981 8.28268 13.6507 8.3675 13.5665L10.671 11.2812L10.6712 11.2813Z"/>
        </g>
        <defs>
        <clipPath id="clip0_461_380">
        <rect width="22" height="22" fill="white"/>
        </clipPath>
        </defs>
    </symbol>

    <symbol id="header_zen" width="21" height="22" viewBox="0 0 22 22" fill="none" xmlns="http://www.w3.org/2000/svg">
        <g clip-path="url(#clip0_461_384)">
        <path d="M12.2507 5.6036C12.0654 4.63742 11.9865 3.42878 11.9253 1.77228C13.5163 1.77998 14.8361 1.81318 15.9326 1.95457C17.3116 2.1324 18.1092 2.45786 18.5867 2.91308C19.0367 3.3856 19.3657 4.21034 19.5452 5.61896C19.6857 6.72167 19.7195 8.03337 19.7275 9.57283C18.0709 9.50971 16.8624 9.43107 15.8956 9.24632C14.7635 9.03 14.0541 8.68327 13.4232 8.07684C12.8159 7.445 12.4677 6.73486 12.2507 5.6036ZM5.10445 9.24632C4.13759 9.43107 2.92905 9.50971 1.27247 9.57283C1.28051 8.03337 1.31431 6.72167 1.45481 5.61896C1.6343 4.21035 1.96333 3.38562 2.41328 2.9131C2.89055 2.45816 3.68952 2.1325 5.07013 1.95458C6.16701 1.81323 7.4864 1.78 9.07467 1.77229C9.01345 3.42879 8.9346 4.63743 8.7493 5.6036C8.53233 6.73486 8.18414 7.44499 7.57684 8.07683C6.94588 8.68326 6.23652 9.03 5.10445 9.24632ZM8.74632 16.3956C8.93108 17.3624 9.00972 18.571 9.07284 20.2277C7.4827 20.22 6.16351 20.1868 5.06742 20.0454C3.68836 19.8676 2.89081 19.5421 2.41327 19.0869C1.96333 18.6144 1.6343 17.7896 1.45481 16.381C1.31425 15.2779 1.28048 13.9656 1.27246 12.4253C2.92887 12.4866 4.13746 12.5654 5.1036 12.7507C6.23486 12.9677 6.945 13.3159 7.57684 13.9232C8.18327 14.5541 8.53 15.2635 8.74632 16.3956ZM15.8956 12.7537C16.8624 12.5689 18.0709 12.4903 19.7275 12.4272C19.7195 13.9666 19.6857 15.2783 19.5452 16.381C19.3657 17.7897 19.0367 18.6144 18.5867 19.0869C18.1092 19.5421 17.3116 19.8676 15.9326 20.0454C14.8361 20.1868 13.5163 20.22 11.9253 20.2277C11.9865 18.5712 12.0654 17.3626 12.2507 16.3964C12.4677 15.2651 12.8159 14.555 13.4232 13.9232C14.0541 13.3167 14.7635 12.97 15.8956 12.7537Z" stroke-width="2.54"/>
        </g>
        <defs>
        <clipPath id="clip0_461_384">
        <rect width="21" height="21" fill="white" transform="translate(0 0.5)"/>
        </clipPath>
        </defs>
    </symbol>

    <symbol id="header_mail" width="27" height="22" viewBox="0 0 22 22" fill="none" xmlns="http://www.w3.org/2000/svg">
        <path d="M22.3125 0.5H3.9375C2.89321 0.5 1.89169 0.914843 1.15327 1.65327C0.414843 2.39169 0 3.39321 0 4.4375V17.5625C0 18.6068 0.414843 19.6083 1.15327 20.3467C1.89169 21.0852 2.89321 21.5 3.9375 21.5H22.3125C23.3568 21.5 24.3583 21.0852 25.0967 20.3467C25.8352 19.6083 26.25 18.6068 26.25 17.5625V4.4375C26.25 3.39321 25.8352 2.39169 25.0967 1.65327C24.3583 0.914843 23.3568 0.5 22.3125 0.5ZM21.4331 3.125L13.125 9.35938L4.81687 3.125H21.4331ZM22.3125 18.875H3.9375C3.5894 18.875 3.25556 18.7367 3.00942 18.4906C2.76328 18.2444 2.625 17.9106 2.625 17.5625V4.76562L12.3375 12.05C12.5647 12.2204 12.841 12.3125 13.125 12.3125C13.409 12.3125 13.6853 12.2204 13.9125 12.05L23.625 4.76562V17.5625C23.625 17.9106 23.4867 18.2444 23.2406 18.4906C22.9944 18.7367 22.6606 18.875 22.3125 18.875Z"/>
    </symbol>

    <symbol id="header_phone" width="23" height="22" viewBox="0 0 23 22" fill="none" xmlns="http://www.w3.org/2000/svg">
        <g clip-path="url(#clip0_461_390)">
        <path d="M5.99664 11.2139H2.20335C1.7788 11.2139 1.43896 11.5571 1.43896 11.9863V14.3034C1.43896 14.7324 1.77861 15.0758 2.20335 15.0758H5.99664C6.42119 15.0758 6.76102 14.7326 6.76102 14.3034V11.9863C6.76102 11.5571 6.42118 11.2139 5.99664 11.2139Z"/>
        <path d="M5.99676 17.25H2.20347C1.77892 17.25 1.43909 17.5932 1.43909 18.0224V20.3395C1.43909 20.7686 1.77873 21.112 2.20347 21.112H5.99676C6.42131 21.112 6.76114 20.7687 6.76114 20.3395V18.0224C6.76114 17.5932 6.42131 17.25 5.99676 17.25Z"/>
        <path d="M13.4703 11.2139H9.67698C9.25243 11.2139 8.9126 11.5571 8.9126 11.9863V14.3034C8.9126 14.7324 9.25224 15.0758 9.67698 15.0758H13.4703C13.8948 15.0758 14.2347 14.7326 14.2347 14.3034V11.9863C14.2347 11.5571 13.895 11.2139 13.4703 11.2139Z"/>
        <path d="M13.4703 17.25H9.67698C9.25243 17.25 8.9126 17.5932 8.9126 18.0224V20.3395C8.9126 20.7686 9.25224 21.112 9.67698 21.112H13.4703C13.8948 21.112 14.2347 20.7687 14.2347 20.3395V18.0224C14.2347 17.5932 13.895 17.25 13.4703 17.25Z"/>
        <path d="M20.9439 11.2139H17.1506C16.7261 11.2139 16.3862 11.5571 16.3862 11.9863V14.3034C16.3862 14.7324 16.7259 15.0758 17.1506 15.0758H20.9439C21.3685 15.0758 21.7083 14.7326 21.7083 14.3034V11.9863C21.7083 11.5571 21.3686 11.2139 20.9439 11.2139Z"/>
        <path d="M20.9437 17.25H17.1504C16.7258 17.25 16.386 17.5932 16.386 18.0224V20.3395C16.386 20.7686 16.7256 21.112 17.1504 21.112H20.9437C21.3682 21.112 21.708 20.7687 21.708 20.3395V18.0224C21.708 17.5932 21.3684 17.25 20.9437 17.25Z"/>
        <path d="M21.9628 3.46152C21.4533 3.00377 20.8021 2.46018 20.2642 2.14551C17.9147 0.772434 14.8289 0 11.5735 0C8.31797 0 5.23234 0.772434 2.88273 2.17406C2.34481 2.48875 1.69377 3.03232 1.18411 3.49008C0.674661 3.9191 0.4764 4.60574 0.617993 5.26364L1.29745 8.41049C1.4106 8.92531 1.9485 9.23998 2.45815 9.0971L7.01583 7.63821C7.44037 7.49514 7.69528 7.09463 7.63861 6.66563L7.29897 4.14798C8.74266 3.71896 9.93157 3.49008 11.5735 3.49008C13.3286 3.49008 14.5175 3.74749 15.9047 4.17669L15.5933 6.63687C15.5366 7.06589 15.7916 7.49513 16.2161 7.60945L20.7456 9.06835C21.255 9.23995 21.7929 8.92527 21.9063 8.38173L22.5291 5.23488C22.6704 4.57718 22.4724 3.89057 21.9627 3.46152H21.9628Z"/>
        </g>
        <defs>
        <clipPath id="clip0_461_390">
        <rect width="22" height="22" fill="white" transform="translate(0.25)"/>
        </clipPath>
        </defs>
    </symbol>

    <symbol id="stories_video_svg" width="69" height="81" viewBox="0 0 69 81" fill="none" xmlns="http://www.w3.org/2000/svg">
        <g filter="url(#filter0_d_512_664)">
        <path d="M56.8027 36.2411L17.866 10.8268C14.5454 8.6558 10.0527 11.0183 10.0527 14.9135V65.6782C10.0527 69.6371 14.5455 71.9359 17.866 69.765L56.8027 44.3507C59.7326 42.4986 59.7326 38.1567 56.8027 36.241V36.2411Z" fill="#FDFFFE"/>
        </g>
        <defs>
        <filter id="filter0_d_512_664" x="0.0527344" y="0" width="68.9474" height="80.6014" filterUnits="userSpaceOnUse" color-interpolation-filters="sRGB">
        <feFlood flood-opacity="0" result="BackgroundImageFix"/>
        <feColorMatrix in="SourceAlpha" type="matrix" values="0 0 0 0 0 0 0 0 0 0 0 0 0 0 0 0 0 0 127 0" result="hardAlpha"/>
        <feOffset/>
        <feGaussianBlur stdDeviation="5"/>
        <feComposite in2="hardAlpha" operator="out"/>
        <feColorMatrix type="matrix" values="0 0 0 0 0 0 0 0 0 0 0 0 0 0 0 0 0 0 0.5 0"/>
        <feBlend mode="normal" in2="BackgroundImageFix" result="effect1_dropShadow_512_664"/>
        <feBlend mode="normal" in="SourceGraphic" in2="effect1_dropShadow_512_664" result="shape"/>
        </filter>
        </defs>
    </symbol>
</svg>